<svg width="156" height="60" viewBox="0 0 156 60" fill="none" xmlns="http://www.w3.org/2000/svg">
<path d="M4.104 21.816V16.392H10.416V14.208H4.104V9.384H10.944V7.2H1.68V24H11.184V21.816H4.104ZM13.935 7.2V24H16.119V7.2H13.935ZM19.2319 7.2V24H21.4159V7.2H19.2319ZM24.5288 24H26.7368V11.832H24.5288V24ZM25.6328 9.672C26.3288 9.672 26.8808 9.12 26.8808 8.424C26.8808 7.752 26.3288 7.176 25.6328 7.176C24.9368 7.176 24.3848 7.752 24.3848 8.424C24.3848 9.12 24.9368 9.672 25.6328 9.672ZM35.8971 13.92V11.832H33.0891V9.288H30.9051V11.832H29.0091V13.92H30.9051V20.04C30.9051 22.704 32.0811 24.12 34.7211 24.12C35.2011 24.12 35.5851 24.072 35.8971 24V22.08C35.6331 22.104 35.3691 22.128 35.0091 22.128C33.1131 22.128 33.0891 20.976 33.0891 19.248V13.92H35.8971ZM43.8752 11.544C40.2992 11.544 37.7072 14.424 37.7072 17.928C37.7072 21.432 40.2032 24.312 44.2352 24.312C46.3712 24.312 48.1472 23.472 49.2272 22.008L47.4272 20.856C46.7552 21.72 45.5552 22.224 44.2352 22.224C41.8592 22.224 40.3712 20.856 40.0352 18.864H49.7072C50.2832 14.328 47.1872 11.544 43.8752 11.544ZM40.0352 16.992C40.3712 14.976 41.7872 13.608 43.8752 13.608C45.9392 13.608 47.2112 14.928 47.4992 16.992H40.0352ZM13.104 54H15.696L9.456 37.2H6.72L0.48 54H3.072L4.488 49.968H11.688L13.104 54ZM5.256 47.76L8.088 39.768L10.896 47.76H5.256ZM27.2655 37.2V43.536C26.3535 42.408 24.9615 41.544 22.8495 41.544C19.0575 41.544 16.7775 44.736 16.7775 47.928C16.7775 51.12 19.0575 54.312 22.8495 54.312C24.9615 54.312 26.3535 53.448 27.2655 52.296V54H29.4495V37.2H27.2655ZM23.0655 52.224C20.5455 52.224 19.0335 50.376 19.0335 47.928C19.0335 45.48 20.5455 43.608 23.0655 43.608C25.7295 43.608 27.2655 45.528 27.2655 47.928C27.2655 50.328 25.7295 52.224 23.0655 52.224ZM38.0158 41.544C34.4398 41.544 31.8478 44.424 31.8478 47.928C31.8478 51.432 34.3438 54.312 38.3758 54.312C40.5118 54.312 42.2878 53.472 43.3678 52.008L41.5678 50.856C40.8958 51.72 39.6958 52.224 38.3758 52.224C35.9998 52.224 34.5118 50.856 34.1758 48.864H43.8478C44.4238 44.328 41.3278 41.544 38.0158 41.544ZM34.1758 46.992C34.5118 44.976 35.9278 43.608 38.0158 43.608C40.0798 43.608 41.3518 44.928 41.6398 46.992H34.1758ZM50.9576 46.944C49.5656 46.656 47.8856 46.56 47.8856 45.192C47.8856 44.184 48.7736 43.512 49.9736 43.512C51.3416 43.512 52.0616 44.232 52.2776 44.904L54.3176 44.352C53.8856 42.552 52.1336 41.544 50.1656 41.544C47.5256 41.544 45.6776 43.128 45.6776 45.36C45.6776 47.16 46.6616 48.264 48.9416 48.768C50.6216 49.152 52.6616 49.152 52.6616 50.568C52.6616 51.648 51.7736 52.296 50.1896 52.296C48.2216 52.296 47.5736 51.432 47.3816 50.808L45.2456 51.528C45.7256 53.352 47.7416 54.312 50.1416 54.312C53.3816 54.312 54.9176 52.512 54.9176 50.352C54.9176 48.528 53.9336 47.568 50.9576 46.944ZM62.7799 43.92V41.832H59.9719V39.288H57.7879V41.832H55.8919V43.92H57.7879V50.04C57.7879 52.704 58.9639 54.12 61.6039 54.12C62.0839 54.12 62.4679 54.072 62.7799 54V52.08C62.5159 52.104 62.2519 52.128 61.8919 52.128C59.9959 52.128 59.9719 50.976 59.9719 49.248V43.92H62.7799ZM67.7284 43.944V41.832H65.5444V54H67.7284V48.552C67.7284 46.32 68.1844 43.584 71.7844 44.016V41.544C70.2244 41.544 68.5444 42.312 67.7284 43.944ZM78.8361 41.544C76.9161 41.544 75.0681 42.216 73.7241 43.44L75.2601 44.616C75.7881 44.184 77.1321 43.536 78.4041 43.536C80.9241 43.536 81.3081 44.976 81.3081 46.824C80.9961 46.824 79.9641 46.824 79.3401 46.824C77.6361 46.824 73.0041 46.92 73.0041 50.736C73.0041 52.92 75.0201 54.312 77.3241 54.312C79.2441 54.312 80.7561 53.256 81.3081 52.32V54H83.4921V46.656C83.4921 43.752 82.3401 41.544 78.8361 41.544ZM81.3081 50.52C81.1641 51.072 79.8921 52.536 77.8041 52.536C75.8601 52.536 75.2601 51.576 75.2601 50.64C75.2601 48.504 78.2121 48.528 80.4681 48.528C80.6121 48.528 81.2361 48.528 81.3081 48.528V50.52ZM99.4547 41.544C97.6307 41.544 96.3347 42.432 95.5667 43.512C94.8227 42.312 93.5267 41.544 92.0627 41.544C90.5267 41.544 89.4707 42.312 88.7987 43.272V41.832H86.6147V54H88.7987V46.608C88.7987 45.048 89.7587 43.608 91.4867 43.608C93.2387 43.608 94.0787 44.88 94.0787 46.608V54H96.2627V46.608C96.2627 45.048 97.2227 43.608 98.9267 43.608C100.703 43.608 101.543 44.88 101.543 46.608V54H103.727V45.96C103.727 43.392 101.759 41.544 99.4547 41.544ZM112.289 41.544C108.713 41.544 106.121 44.424 106.121 47.928C106.121 51.432 108.617 54.312 112.649 54.312C114.785 54.312 116.561 53.472 117.641 52.008L115.841 50.856C115.169 51.72 113.969 52.224 112.649 52.224C110.273 52.224 108.785 50.856 108.449 48.864H118.121C118.697 44.328 115.601 41.544 112.289 41.544ZM108.449 46.992C108.785 44.976 110.201 43.608 112.289 43.608C114.353 43.608 115.625 44.928 115.913 46.992H108.449ZM126.551 41.544C124.703 41.544 123.503 42.456 122.783 43.536V41.832H120.599V54H122.783V47.016C122.783 45.6 123.719 43.608 126.023 43.608C128.303 43.608 129.023 45.312 129.023 47.016V54H131.207V46.392C131.207 43.824 129.287 41.544 126.551 41.544ZM140.147 43.92V41.832H137.339V39.288H135.155V41.832H133.259V43.92H135.155V50.04C135.155 52.704 136.331 54.12 138.971 54.12C139.451 54.12 139.835 54.072 140.147 54V52.08C139.883 52.104 139.619 52.128 139.259 52.128C137.363 52.128 137.339 50.976 137.339 49.248V43.92H140.147ZM148.341 41.544C144.669 41.544 141.957 44.424 141.957 47.928C141.957 51.432 144.669 54.312 148.341 54.312C152.013 54.312 154.725 51.432 154.725 47.928C154.725 44.424 152.013 41.544 148.341 41.544ZM148.341 52.224C145.941 52.224 144.213 50.4 144.213 47.928C144.213 45.432 145.941 43.608 148.341 43.608C150.741 43.608 152.493 45.432 152.493 47.928C152.493 50.4 150.741 52.224 148.341 52.224Z" fill="#454F5F"/>
</svg>
